<svg version="1.0" viewBox="0 0 300.000000 128.000000" xmlns="http://www.w3.org/2000/svg">
    <g transform="translate(0.000000,128.000000) scale(0.100000,-0.100000)" fill="#796363" stroke="none">
        <path d="M120 666 c0 -311 3 -566 6 -566 3 0 56 9 117 19 62 11 198 34 304 51 105 17 200 32 210 34 10 2 37 7 61 11 l42 7 0 442 0 441 -358 59 c-196 32 -363 61 -369 63 -10 4 -13 -112 -13 -561z m273 183 c21 -6 56 -26 77 -45 37 -34 39 -34 49 -15 6 11 35 31 64 46 44 21 62 24 96 19 58 -9 102 -41 129 -94 21 -42 22 -56 22 -272 l0 -228 -35 0 -35 0 0 230 0 230 -29 32 c-27 31 -34 33 -91 33 -55 0 -64 -3 -86 -28 -24 -28 -24 -29 -24 -263 l0 -234 -40 0 -40 0 0 231 c0 139 -4 238 -10 250 -24 43 -109 63 -165 37 -50 -23 -55 -47 -55 -293 l0 -225 -35 0 -35 0 0 290 c0 251 2 290 15 290 8 0 15 -3 15 -7 0 -5 7 -17 15 -27 15 -19 15 -19 37 2 25 23 84 51 108 52 8 0 32 -5 53 -11z"/>
        <path d="M1974 1066 c-3 -8 -4 -29 -2 -48 3 -30 6 -33 41 -36 l37 -3 0 50 0 51 -35 0 c-21 0 -38 -6 -41 -14z"/>
        <path d="M1445 978 c-2 -7 -6 -40 -7 -73 l-3 -60 -52 -3 c-51 -3 -53 -4 -53 -33 0 -29 1 -29 55 -29 l55 0 0 -207 c0 -189 2 -211 20 -240 26 -44 68 -63 135 -63 56 0 56 0 53 28 -3 24 -8 28 -51 32 -30 4 -55 14 -70 28 -21 22 -22 31 -25 222 l-3 200 75 0 76 0 0 30 0 30 -75 0 -75 0 0 75 c0 74 0 75 -25 75 -14 0 -28 -6 -30 -12z"/>
        <path d="M985 827 c-26 -14 -48 -37 -62 -67 -21 -40 -23 -58 -23 -200 1 -206 17 -251 105 -291 113 -52 261 9 281 116 9 47 1 62 -35 67 -29 4 -31 2 -31 -24 0 -36 -24 -84 -49 -98 -25 -13 -127 -13 -152 0 -33 18 -49 64 -49 145 l0 75 160 0 160 0 0 83 c0 98 -24 158 -79 194 -48 33 -168 33 -226 0z m207 -76 c24 -27 28 -40 28 -91 l0 -60 -126 0 -126 0 4 64 c6 97 41 128 137 122 46 -2 59 -8 83 -35z"/>
        <path d="M1815 834 c-16 -8 -37 -22 -47 -31 -15 -13 -18 -12 -33 11 -10 14 -24 26 -31 26 -12 0 -14 -49 -14 -285 l0 -285 35 0 35 0 0 209 c0 115 4 221 10 235 13 36 67 66 118 66 41 0 42 0 42 35 0 35 -1 35 -42 35 -24 0 -56 -7 -73 -16z"/>
        <path d="M2179 827 c-18 -12 -44 -38 -57 -57 -23 -34 -23 -40 -20 -225 3 -182 4 -191 27 -224 67 -94 255 -94 323 1 12 17 23 52 26 79 l5 49 -37 0 c-35 0 -36 -1 -36 -36 0 -26 -8 -43 -29 -65 -26 -26 -36 -29 -90 -29 -53 0 -65 4 -93 29 l-33 29 -3 144 c-4 173 5 221 51 248 58 36 161 19 187 -29 5 -11 10 -36 10 -55 0 -37 6 -41 48 -30 18 5 22 13 22 44 0 44 -32 95 -79 127 -49 33 -173 33 -222 0z"/>
        <path d="M2620 832 c-51 -25 -80 -74 -80 -136 0 -94 40 -131 189 -175 87 -26 121 -56 121 -105 0 -19 -3 -42 -6 -51 -11 -27 -60 -45 -123 -45 -75 0 -116 29 -126 91 -7 38 -9 40 -38 37 -31 -3 -32 -5 -29 -43 4 -56 42 -108 97 -135 39 -19 58 -22 115 -18 79 6 124 28 158 79 20 28 23 44 20 92 -6 80 -42 117 -152 153 -111 37 -135 51 -150 85 -18 42 -9 75 27 105 27 23 38 26 89 22 68 -5 104 -32 114 -85 6 -29 10 -34 28 -29 11 3 27 6 33 6 18 0 5 58 -22 101 -13 20 -39 43 -58 52 -48 23 -161 23 -207 -1z"/>
        <path d="M1980 555 l0 -285 35 0 35 0 0 285 0 285 -35 0 -35 0 0 -285z"/>
    </g>
</svg>
